<svg viewBox="0 0 111 40" fill="none" xmlns="http://www.w3.org/2000/svg">
<g clip-path="url(#clip0)">
<path d="M5.2 27.0269C5.2 31.7107 9.2 35.3107 14.3432 35.3107C19.4865 35.3107 23.4865 31.7134 23.4865 27.0269C23.4865 22.3972 19.4865 18.7404 14.3432 18.7404C9.2 18.7404 5.2 22.3999 5.2 27.0269ZM0 27.0269C0 19.7134 6.51351 14.054 14.3432 14.054C22.173 14.054 28.6865 19.7107 28.6865 27.0269C28.6865 34.3972 22.173 39.9999 14.3432 39.9999C6.51351 39.9999 0 34.3999 0 27.0269Z" fill="#214735"/>
<path d="M35.4265 0C37.1968 0 37.8832 0.62973 37.8832 2.62973V37.0865C37.8832 39.0865 37.1968 39.7135 35.4265 39.7135C33.6562 39.7135 32.9697 39.0865 32.9697 37.0865V2.62973C32.9697 0.62973 33.6562 0 35.4265 0Z" fill="#FFCECC"/>
<path d="M46.0534 14.3433C47.8264 14.3433 48.5102 14.973 48.5102 16.973V37.0865C48.5102 39.0865 47.8264 39.7135 46.0534 39.7135C44.2805 39.7135 43.5967 39.0865 43.5967 37.0865V16.973C43.5967 14.973 44.2832 14.3433 46.0534 14.3433Z" fill="#FFA942"/>
<path d="M69.5412 34.0539C71.7682 31.8269 75.7574 22.5107 77.7682 16.2161C78.225 14.8431 78.8493 14.3242 79.7114 14.3242C80.9682 14.3242 82.5115 15.135 82.5115 16.4377C82.4891 16.9261 82.3925 17.4082 82.225 17.8675C80.4547 23.4107 75.4682 34.781 72.4547 37.6945C70.6817 39.4107 69.425 39.981 67.2547 39.981C65.0844 39.981 63.7682 39.4107 61.9979 37.6945C58.9682 34.781 53.9979 23.4107 52.225 17.8675C52.0587 17.4078 51.9621 16.9259 51.9385 16.4377C51.9385 15.1242 53.6547 14.3242 54.9114 14.3242C55.7682 14.3242 56.3412 14.8377 56.8547 16.2161C58.8547 21.8729 62.9682 31.8161 65.1979 34.0539C65.9412 34.7972 66.5682 35.135 67.3601 35.135C68.152 35.135 68.7898 34.7918 69.5223 34.0539" fill="#FF404E"/>
<path d="M98.4518 18.5702C93.8248 18.5702 90.2248 21.1999 89.1383 24.8566C91.8434 25.5616 94.6294 25.9078 97.4248 25.8864C102.965 25.8864 105.263 24.2864 105.263 22.5134C105.263 20.3999 102.063 18.5702 98.4626 18.5702H98.4518ZM98.5761 39.9999C90.1761 39.9999 83.6626 34.5729 83.6626 27.3134C83.6626 19.7729 90.1761 14.0566 98.5761 14.0566C105.538 14.0539 110.271 17.9431 110.271 22.5134C110.271 26.9702 104.865 29.9999 97.5383 29.9999C94.6187 30.0135 91.7135 29.5899 88.9194 28.7431C89.7302 32.4566 93.5491 35.3134 98.6329 35.3134C102.063 35.3134 104.579 34.3431 106.976 32.7999C107.663 32.3431 108.176 32.1134 108.576 32.1134C109.779 32.1134 110.919 33.8864 110.919 34.9161C110.919 35.6566 110.406 36.2296 109.319 36.9161C106.115 38.9769 102.375 40.0493 98.5653 39.9999" fill="#8AD5B8"/>
<path d="M46.0539 10.5704C45.645 10.5856 45.2374 10.5162 44.8565 10.3665C44.4756 10.2169 44.1298 9.99025 43.8405 9.70078C43.5513 9.4113 43.325 9.06523 43.1757 8.68424C43.0264 8.30325 42.9573 7.89554 42.9728 7.48663C42.9728 6.66805 43.298 5.88299 43.8769 5.30416C44.4557 4.72533 45.2407 4.40015 46.0593 4.40015C46.8779 4.40015 47.663 4.72533 48.2418 5.30416C48.8206 5.88299 49.1458 6.66805 49.1458 7.48663C49.1614 7.89649 49.0921 8.30514 48.9421 8.68689C48.7922 9.06865 48.5649 9.41524 48.2745 9.70488C47.984 9.99452 47.6369 10.2209 47.2547 10.3699C46.8726 10.5188 46.4637 10.5871 46.0539 10.5704Z" fill="#4E1733"/>
</g>
<defs>
<clipPath id="clip0">
<rect width="110.908" height="40" fill="white"/>
</clipPath>
</defs>
</svg>
